<?xml version="1.0" encoding="UTF-8"?>
<svg xmlns="http://www.w3.org/2000/svg" xmlns:xlink="http://www.w3.org/1999/xlink" width="512" height="512" viewBox="0 0 512 512"><defs><linearGradient id="a" data-name="New Gradient Swatch 1" x1="9.166" y1="502.834" x2="505.315" y2="6.685" gradientUnits="userSpaceOnUse"><stop offset="0" stop-color="#003f8a"/><stop offset="0.518" stop-color="#00d7df"/><stop offset="1" stop-color="#006df0"/></linearGradient><linearGradient id="b" x1="9.166" y1="502.834" x2="505.315" y2="6.685" xlink:href="#a"/></defs><g><path d="M496,216H451.98a200.568,200.568,0,0,0-29.12-70.29l31.13-31.13a8.015,8.015,0,0,0,0-11.32L408.73,58.01a8,8,0,0,0-11.31,0L366.29,89.14A200.568,200.568,0,0,0,296,60.02V16a8,8,0,0,0-8-8H224a8,8,0,0,0-8,8V60.02a200.568,200.568,0,0,0-70.29,29.12L114.58,58.01a8,8,0,0,0-11.31,0L58.01,103.26a8.015,8.015,0,0,0,0,11.32l31.13,31.13A200.568,200.568,0,0,0,60.02,216H16a8,8,0,0,0-8,8v64a8,8,0,0,0,8,8H60.02a200.568,200.568,0,0,0,29.12,70.29L58.01,397.42a8.015,8.015,0,0,0,0,11.32l45.26,45.25a8,8,0,0,0,11.31,0l31.13-31.13A200.568,200.568,0,0,0,216,451.98V496a8,8,0,0,0,8,8h64a8,8,0,0,0,8-8V451.98a200.568,200.568,0,0,0,70.29-29.12l31.13,31.13a8,8,0,0,0,11.31,0l45.26-45.25a8.015,8.015,0,0,0,0-11.32l-31.13-31.13A200.568,200.568,0,0,0,451.98,296H496a8,8,0,0,0,8-8V224A8,8,0,0,0,496,216Zm-8,64H445.33a8,8,0,0,0-7.89,6.68,184.285,184.285,0,0,1-31.45,75.93,7.99,7.99,0,0,0,.86,10.3l30.17,30.17-33.94,33.94L372.9,406.85a7.976,7.976,0,0,0-10.29-.86,184.285,184.285,0,0,1-75.93,31.45,8,8,0,0,0-6.68,7.89V488H232V445.33a8,8,0,0,0-6.68-7.89,184.285,184.285,0,0,1-75.93-31.45,7.988,7.988,0,0,0-10.29.86l-30.18,30.17L74.98,403.08l30.17-30.17a7.99,7.99,0,0,0,.86-10.3,184.285,184.285,0,0,1-31.45-75.93A8,8,0,0,0,66.67,280H24V232H66.67a8,8,0,0,0,7.89-6.68,184.285,184.285,0,0,1,31.45-75.93,7.99,7.99,0,0,0-.86-10.3L74.98,108.92l33.94-33.94,30.18,30.17a7.976,7.976,0,0,0,10.29.86,184.285,184.285,0,0,1,75.93-31.45A8,8,0,0,0,232,66.67V24h48V66.67a8,8,0,0,0,6.68,7.89,184.285,184.285,0,0,1,75.93,31.45,7.976,7.976,0,0,0,10.29-.86l30.18-30.17,33.94,33.94-30.17,30.17a7.99,7.99,0,0,0-.86,10.3,184.285,184.285,0,0,1,31.45,75.93,8,8,0,0,0,7.89,6.68H488Z" fill="url(#a)"/><path d="M256,104c-83.813,0-152,68.187-152,152s68.187,152,152,152,152-68.187,152-152S339.813,104,256,104Zm32,284.188c-2.639.638-5.3,1.209-8,1.691V256h8ZM236.944,216h38.112l12,24H224.944Zm8-16L256,177.889,267.056,200ZM224,256h8.069a8.047,8.047,0,0,0-.069,1V389.879c-2.7-.482-5.361-1.053-8-1.691Zm24,135.758V257a8.047,8.047,0,0,0-.069-1H264V391.758c-2.648.155-5.314.242-8,.242S250.648,391.913,248,391.758Zm56-8.514V240a7.994,7.994,0,0,0-.845-3.578l-40-80a8,8,0,0,0-14.31,0l-40,80A7.994,7.994,0,0,0,208,240V383.244A136.223,136.223,0,0,1,120,256c0-74.99,61.009-136,136-136s136,61.01,136,136A136.223,136.223,0,0,1,304,383.244Z" fill="url(#b)"/></g></svg>
