<svg id="Flat" height="512" viewBox="0 0 512 512" width="512" xmlns="http://www.w3.org/2000/svg"><g><path d="m24 72h464v376h-464z" fill="#e6f8ff"/><path d="m24 104v-54a10 10 0 0 1 10-10h444a10 10 0 0 1 10 10v54z" fill="#80daff"/><path d="m468 472h-424a20 20 0 0 1 -20-20v-28h152l16 16h128l16-16h152v28a20 20 0 0 1 -20 20z" fill="#80daff"/><path d="m448 64h16v16h-16z" fill="#e6f8ff"/><path d="m112 64h16v16h-16z" fill="#e6f8ff"/><path d="m48 64h16v16h-16z" fill="#e6f8ff"/><path d="m80 64h16v16h-16z" fill="#e6f8ff"/><path d="m392 136h12a20 20 0 0 1 20 20v76l32 32-32 32v76a20 20 0 0 1 -20 20h-296a20 20 0 0 1 -20-20v-76l-32-32 32-32v-76a20 20 0 0 1 20-20z" fill="#fbd373"/><path d="m120 400h-12a28.0314 28.0314 0 0 1 -28-28v-72.6865l-29.6567-29.6568a7.9991 7.9991 0 0 1 0-11.3134l29.6567-29.6568v-72.6865a28.0314 28.0314 0 0 1 28-28h12v16h-12a12.0137 12.0137 0 0 0 -12 12v76a7.9986 7.9986 0 0 1 -2.3433 5.6567l-26.3432 26.3433 26.3432 26.3433a7.9986 7.9986 0 0 1 2.3433 5.6567v76a12.0137 12.0137 0 0 0 12 12h12z" fill="#fbc573"/><path d="m404 400h-12v-16h12a12.0137 12.0137 0 0 0 12-12v-76a7.9986 7.9986 0 0 1 2.3433-5.6567l26.3432-26.3433-26.3432-26.3433a7.9986 7.9986 0 0 1 -2.3433-5.6567v-76a12.0137 12.0137 0 0 0 -12-12h-12v-16h12a28.0314 28.0314 0 0 1 28 28v72.6865l29.6567 29.6568a7.9991 7.9991 0 0 1 0 11.3134l-29.6567 29.6568v72.6865a28.0314 28.0314 0 0 1 -28 28z" fill="#fbc573"/><g fill="#fffefd"><path d="m138.3433 213.6567-24-24a7.9991 7.9991 0 0 1 0-11.3134l24-24 11.3134 11.3134-18.3432 18.3433 18.3432 18.3433z"/><path d="m205.6567 213.6567-11.3134-11.3134 18.3432-18.3433-18.3432-18.3433 11.3134-11.3134 24 24a7.9991 7.9991 0 0 1 0 11.3134z"/><path d="m164 149.824h16v68.352h-16z" transform="matrix(.936 -.351 .351 .936 -53.655 72.109)"/><path d="m112 248h64v16h-64z"/><path d="m192 248h24v16h-24z"/><path d="m232 248h16v16h-16z"/><path d="m264 248h80v16h-80z"/><path d="m360 248h40v16h-40z"/><path d="m336 288h64v16h-64z"/><path d="m296 288h24v16h-24z"/><path d="m264 288h16v16h-16z"/><path d="m168 288h80v16h-80z"/><path d="m112 288h40v16h-40z"/><path d="m280 328h40v16h-40z"/><path d="m224 328h40v16h-40z"/><path d="m152 328h56v16h-56z"/><path d="m112 328h24v16h-24z"/><path d="m336 368h40v16h-40z"/></g></g></svg>